<svg id="Layer_1" data-name="Layer 1" xmlns="http://www.w3.org/2000/svg" viewBox="0 0 512 512"><defs><style>.cls-1{fill:#4b5563;}</style></defs><title>chat-outline</title><path class="cls-1" d="M72.21,229.74A72.31,72.31,0,1,0,17.83,205,72.12,72.12,0,0,0,72.21,229.74Zm0-131.28a59,59,0,0,1,45.92,96.17,55.19,55.19,0,0,0-45.92-24,55.19,55.19,0,0,0-45.92,24A59,59,0,0,1,72.21,98.46Z"/><circle class="cls-1" cx="72.21" cy="150.97" r="19.69"/><path class="cls-1" d="M492.31,98.46H216.62a19.71,19.71,0,0,0-19.69,19.69v23.54l-15.85,15.85,15.85,15.85v23.54a19.71,19.71,0,0,0,19.69,19.69H492.31A19.71,19.71,0,0,0,512,196.92V118.15A19.71,19.71,0,0,0,492.31,98.46Zm6.56,98.46a6.57,6.57,0,0,1-6.56,6.56H216.62a6.57,6.57,0,0,1-6.56-6.56v-29l-10.41-10.41,10.41-10.41v-29a6.57,6.57,0,0,1,6.56-6.56H492.31a6.57,6.57,0,0,1,6.56,6.56Z"/><path class="cls-1" d="M387.28,151H256a6.56,6.56,0,0,0,0,13.13H387.28a6.56,6.56,0,1,0,0-13.13Z"/><path class="cls-1" d="M439.79,282.26A72.16,72.16,0,1,0,512,354.46,72.29,72.29,0,0,0,439.79,282.26Zm45.92,109.3a56,56,0,0,0-91.85,0,59.08,59.08,0,1,1,91.85,0Z"/><circle class="cls-1" cx="439.79" cy="347.9" r="19.69"/><path class="cls-1" d="M315.08,315.08a19.71,19.71,0,0,0-19.69-19.69H19.69A19.71,19.71,0,0,0,0,315.08v78.77a19.71,19.71,0,0,0,19.69,19.69H295.38a19.71,19.71,0,0,0,19.69-19.69V370.31l15.85-15.85-15.85-15.85Zm-13.13,49.79v29a6.57,6.57,0,0,1-6.56,6.56H19.69a6.57,6.57,0,0,1-6.56-6.56V315.08a6.57,6.57,0,0,1,6.56-6.56H295.38a6.57,6.57,0,0,1,6.56,6.56v29l10.41,10.41Z"/><path class="cls-1" d="M190.36,347.9H59.08a6.56,6.56,0,1,0,0,13.13H190.36a6.56,6.56,0,1,0,0-13.13Z"/></svg>